<svg width="138" height="138" viewBox="0 0 138 138" fill="none" xmlns="http://www.w3.org/2000/svg">
<rect width="138" height="138" rx="16" fill="black"/>
<path fill-rule="evenodd" clip-rule="evenodd" d="M27.9286 52.3887C36.978 52.3887 44.3571 59.8518 44.3571 68.9998C44.3571 78.1477 36.978 85.6109 27.9286 85.6109C18.8792 85.6109 11.5 78.1477 11.5 68.9998C11.5 59.8498 18.8792 52.3887 27.9286 52.3887Z" fill="#AFCA05"/>
<path fill-rule="evenodd" clip-rule="evenodd" d="M93.8978 78.0519H126.498C122.192 101.202 101.692 118.833 77.1755 118.833C68.245 118.833 59.8482 116.488 52.5718 112.395C62.3742 106.88 70.1429 98.1786 74.4333 87.729C75.3305 87.8593 76.2461 87.9279 77.1755 87.9279C84.3738 87.9302 90.6587 83.9281 93.8978 78.0519ZM77.1778 19.1666C101.696 19.1666 122.196 36.7952 126.5 59.948H93.9001C90.661 54.0695 84.3761 50.0698 77.1778 50.0698C76.2461 50.0698 75.3328 50.136 74.4356 50.2663C70.1452 39.8144 62.3765 31.1156 52.5718 25.6005C59.8505 21.507 68.245 19.1666 77.1778 19.1666Z" fill="white"/>
</svg>
