<svg width="536" height="173" viewBox="0 0 536 173" fill="none" xmlns="http://www.w3.org/2000/svg">
<g clip-path="url(#clip0)">
<path fill-rule="evenodd" clip-rule="evenodd" d="M28.4733 46.4479C44.1573 46.4479 56.9465 59.2295 56.9465 74.8965C56.9465 90.5635 44.1573 103.345 28.4733 103.345C12.7892 103.345 0 90.5635 0 74.8965C0 59.2261 12.7892 46.4479 28.4733 46.4479Z" fill="#AFCA05"/>
<path d="M205.515 42.089C205.515 45.0019 206.065 47.7533 207.165 50.3364C208.265 52.9195 209.764 55.1592 211.662 57.0553C213.56 58.9514 215.802 60.4525 218.39 61.5517C220.976 62.6509 223.729 63.2005 226.645 63.2005C229.56 63.2005 232.314 62.6509 234.899 61.5517C237.485 60.4525 239.744 58.9548 241.669 57.0553C243.594 55.1557 245.107 52.9195 246.207 50.3364C247.307 47.7533 247.857 45.0053 247.857 42.089C247.857 39.1761 247.307 36.4247 246.207 33.8416C245.107 31.2585 243.594 29.0017 241.669 27.0781C239.744 25.1545 237.488 23.6431 234.899 22.5439C232.314 21.4447 229.564 20.8951 226.645 20.8951C223.729 20.8951 220.976 21.4447 218.39 22.5439C215.805 23.6431 213.563 25.1545 211.662 27.0781C209.764 29.0017 208.262 31.255 207.165 33.8416C206.065 36.4247 205.515 39.1727 205.515 42.089ZM200.396 42.089C200.396 38.4617 201.084 35.0507 202.459 31.863C203.834 28.6754 205.704 25.8827 208.07 23.492C210.435 21.1012 213.216 19.2188 216.407 17.8414C219.597 16.4674 223.011 15.7804 226.641 15.7804C230.275 15.7804 233.686 16.4674 236.876 17.8414C240.067 19.2154 242.858 21.1012 245.255 23.492C247.647 25.8827 249.535 28.6754 250.91 31.863C252.285 35.0507 252.973 38.4582 252.973 42.089C252.973 45.7198 252.285 49.1273 250.91 52.315C249.535 55.5027 247.651 58.2816 245.255 60.6448C242.862 63.0081 240.07 64.8768 236.876 66.2508C233.686 67.6248 230.272 68.3117 226.641 68.3117C223.011 68.3117 219.597 67.6248 216.407 66.2508C213.216 64.8768 210.435 63.0081 208.07 60.6448C205.704 58.2816 203.834 55.5027 202.459 52.315C201.084 49.1239 200.396 45.7164 200.396 42.089Z" fill="#AFCA05"/>
<path d="M263.266 42.0064C263.266 44.9193 263.816 47.6707 264.916 50.2539C266.016 52.837 267.515 55.0938 269.413 57.0174C271.31 58.941 273.555 60.4661 276.141 61.5962C278.726 62.7229 281.48 63.2862 284.395 63.2862C287.476 63.2862 290.353 62.6954 293.021 61.5138C295.689 60.3321 297.989 58.6971 299.914 56.6086C300.354 56.1139 300.918 55.7842 301.606 55.6193C302.293 55.4544 302.912 55.5644 303.462 55.9491C304.067 56.4437 304.37 57.117 304.37 57.9688C304.37 58.8207 304.122 59.5215 303.627 60.0711C301.207 62.7091 298.347 64.7598 295.043 66.2163C291.742 67.6727 288.191 68.4009 284.395 68.4009C280.765 68.4009 277.351 67.7139 274.161 66.3399C270.97 64.9659 268.192 63.0801 265.823 60.6894C263.458 58.2986 261.588 55.4922 260.209 52.2771C258.834 49.0619 258.146 45.6372 258.146 42.0099C258.146 38.3825 258.834 34.9578 260.209 31.7427C261.584 28.5275 263.455 25.7246 265.823 23.3304C268.189 20.9396 270.97 19.0435 274.161 17.6386C277.351 16.2371 280.765 15.5364 284.395 15.5364C288.081 15.5364 291.536 16.2509 294.754 17.6798C297.975 19.1088 300.794 21.0598 303.215 23.533C303.655 23.9727 303.985 24.5223 304.205 25.1818C304.425 25.8414 304.342 26.4734 303.957 27.078C303.517 27.7375 302.871 28.0947 302.018 28.1497C301.166 28.2046 300.437 27.9298 299.832 27.3253C297.852 25.6215 295.541 24.0826 292.897 22.7086C290.257 21.3346 287.421 20.6476 284.395 20.6476C281.48 20.6476 278.726 21.211 276.141 22.3377C273.555 23.4643 271.31 25.0032 269.413 26.9543C267.515 28.9054 266.016 31.1759 264.916 33.759C263.816 36.3421 263.266 39.0936 263.266 42.0064Z" fill="#AFCA05"/>
<path d="M310.7 18.1711C310.7 17.4566 310.947 16.8521 311.442 16.3574C311.937 15.8628 312.542 15.6155 313.258 15.6155C313.973 15.6155 314.578 15.8628 315.073 16.3574C315.568 16.8521 315.815 17.4566 315.815 18.1711V65.921C315.815 66.6354 315.568 67.24 315.073 67.7346C314.578 68.2293 313.973 68.4766 313.258 68.4766C312.542 68.4766 311.937 68.2293 311.442 67.7346C310.947 67.24 310.7 66.6354 310.7 65.921V18.1711Z" fill="#AFCA05"/>
<path d="M327.343 42.089C327.343 45.0019 327.893 47.7533 328.993 50.3364C330.093 52.9195 331.592 55.1592 333.494 57.0553C335.395 58.9514 337.633 60.4525 340.222 61.5517C342.807 62.6509 345.557 63.2005 348.476 63.2005C351.392 63.2005 354.145 62.6509 356.731 61.5517C359.316 60.4525 361.575 58.9548 363.5 57.0553C365.425 55.1592 366.938 52.9195 368.038 50.3364C369.138 47.7533 369.688 45.0053 369.688 42.089C369.688 39.1761 369.138 36.4247 368.038 33.8416C366.938 31.2585 365.425 29.0017 363.5 27.0781C361.575 25.1545 359.32 23.6431 356.731 22.5439C354.145 21.4447 351.392 20.8951 348.476 20.8951C345.561 20.8951 342.807 21.4447 340.222 22.5439C337.636 23.6431 335.391 25.1545 333.494 27.0781C331.596 29.0017 330.097 31.255 328.993 33.8416C327.893 36.4247 327.343 39.1727 327.343 42.089ZM322.227 42.089C322.227 38.4617 322.915 35.0507 324.29 31.863C325.665 28.6754 327.536 25.8827 329.904 23.492C332.27 21.1012 335.051 19.2188 338.241 17.8414C341.432 16.4674 344.846 15.7804 348.476 15.7804C352.11 15.7804 355.521 16.4674 358.711 17.8414C361.901 19.2154 364.693 21.1012 367.089 23.492C369.486 25.8827 371.37 28.6754 372.745 31.863C374.12 35.0507 374.808 38.4582 374.808 42.089C374.808 45.7198 374.12 49.1273 372.745 52.315C371.37 55.5027 369.486 58.2816 367.089 60.6448C364.697 63.0081 361.905 64.8768 358.711 66.2508C355.521 67.6248 352.107 68.3117 348.476 68.3117C344.846 68.3117 341.432 67.6248 338.241 66.2508C335.051 64.8768 332.27 63.0081 329.904 60.6448C327.539 58.2816 325.669 55.5027 324.29 52.315C322.915 49.1239 322.227 45.7164 322.227 42.089Z" fill="#AFCA05"/>
<path fill-rule="evenodd" clip-rule="evenodd" d="M127.009 88.4992H175.728C169.293 123.292 138.657 149.79 102.018 149.79C88.6721 149.79 76.1236 146.265 65.2493 140.113C79.8985 131.825 91.5085 118.748 97.9203 103.043C99.2611 103.239 100.629 103.342 102.018 103.342C112.776 103.345 122.168 97.3305 127.009 88.4992ZM102.022 0C138.664 0 169.299 26.4941 175.732 61.2906H127.012C122.172 52.4558 112.779 46.4445 102.022 46.4445C100.629 46.4445 99.2645 46.5442 97.9237 46.74C91.5119 31.0317 79.9019 17.9581 65.2493 9.66951C76.127 3.51743 88.6721 0 102.022 0Z" fill="white"/>
<path d="M200.396 107.567C200.396 103.939 201.084 100.528 202.459 97.3408C203.834 94.1531 205.704 91.3605 208.073 88.9697C210.438 86.579 213.23 84.6966 216.451 83.3192C219.669 81.9452 223.097 81.2582 226.727 81.2582C230.856 81.2582 234.679 82.1513 238.2 83.9375C241.724 85.7237 244.694 88.1007 247.115 91.072C247.775 92.0612 248.077 92.9956 248.022 93.8749C248.022 95.3588 247.445 96.6504 246.289 97.753C245.134 98.8522 243.787 99.4293 242.246 99.4843C240.706 99.4293 239.606 99.0171 238.946 98.2477C237.516 96.434 235.742 94.9775 233.624 93.8783C231.506 92.7791 229.21 92.2295 226.731 92.2295C224.641 92.2295 222.66 92.628 220.787 93.4249C218.916 94.2218 217.28 95.321 215.874 96.7225C214.471 98.124 213.357 99.7453 212.532 101.586C211.707 103.428 211.294 105.365 211.294 107.402C211.294 109.545 211.693 111.565 212.491 113.465C213.288 115.361 214.389 117.01 215.791 118.411C217.194 119.813 218.83 120.912 220.701 121.709C222.571 122.506 224.582 122.904 226.727 122.904C229.203 122.904 231.499 122.354 233.621 121.255C235.738 120.156 237.512 118.7 238.942 116.886C239.768 116.116 240.895 115.732 242.325 115.732C243.921 115.732 245.268 116.281 246.369 117.381C247.469 118.48 248.019 119.689 248.019 121.011C248.019 122.275 247.716 123.292 247.111 124.062C244.691 127.029 241.72 129.41 238.196 131.196C234.676 132.982 230.85 133.875 226.724 133.875C223.09 133.875 219.666 133.188 216.448 131.814C213.23 130.44 210.438 128.555 208.07 126.164C205.704 123.773 203.834 120.98 202.455 117.793C201.084 114.605 200.396 111.198 200.396 107.567Z" fill="white"/>
<path d="M272.899 92.3946C271.798 92.3946 270.794 92.5869 269.887 92.9716C268.979 93.3564 268.168 93.8922 267.453 94.5792C266.738 95.2662 266.188 96.0769 265.803 97.0112C265.418 97.9455 265.225 98.9348 265.225 99.979C265.225 100.968 265.431 101.93 265.844 102.864C266.256 103.799 266.806 104.623 267.494 105.338C268.182 106.052 268.993 106.615 269.928 107.028C270.863 107.44 271.853 107.646 272.899 107.646C274.934 107.646 276.708 106.918 278.224 105.461C279.737 104.005 280.493 102.177 280.493 99.979C280.493 98.9348 280.287 97.9455 279.874 97.0112C279.462 96.0769 278.912 95.2662 278.224 94.5792C277.536 93.8922 276.725 93.3564 275.79 92.9716C274.851 92.5869 273.889 92.3946 272.899 92.3946ZM286.599 124.474C287.149 125.024 287.548 125.642 287.795 126.329C288.043 127.016 288.167 127.717 288.167 128.431C288.167 129.146 288.043 129.846 287.795 130.533C287.548 131.22 287.149 131.839 286.599 132.388C285.499 133.432 284.189 133.955 282.68 133.955C281.167 133.955 279.86 133.432 278.757 132.388L265.222 118.861V128.345C265.222 129.939 264.671 131.272 263.571 132.344C262.471 133.415 261.151 133.951 259.611 133.951C258.126 133.951 256.829 133.415 255.729 132.344C254.629 131.272 254.079 129.939 254.079 128.345V99.9756C254.134 97.5024 254.643 95.1219 255.606 92.8411C256.568 90.5603 257.902 88.5645 259.611 86.8608C261.316 85.157 263.296 83.7968 265.555 82.78C267.81 81.7633 270.262 81.2549 272.902 81.2549C275.322 81.2549 277.66 81.7495 279.919 82.7388C282.174 83.7281 284.154 85.0609 285.863 86.7371C287.568 88.4134 288.93 90.392 289.951 92.6762C290.968 94.9571 291.477 97.389 291.477 99.9756C291.477 103.933 290.405 107.467 288.259 110.573C286.114 113.678 283.25 116.003 279.675 117.542L286.599 124.474Z" fill="white"/>
<path d="M326.222 122.825C327.762 122.825 329.069 123.375 330.141 124.474C331.214 125.573 331.75 126.865 331.75 128.352C331.75 129.946 331.214 131.279 330.141 132.35C329.069 133.422 327.762 133.958 326.222 133.958H302.617C301.187 133.958 299.908 133.422 298.78 132.35C297.653 131.279 297.089 129.946 297.089 128.352V86.8675C297.089 85.4385 297.611 84.147 298.657 82.9928C299.702 81.8387 301.022 81.2616 302.617 81.2616H326.222C327.762 81.2616 329.069 81.8112 330.141 82.9104C331.214 84.0096 331.75 85.3286 331.75 86.8675C331.75 88.4613 331.214 89.7804 330.141 90.8246C329.069 91.8689 327.762 92.391 326.222 92.391H308.063V101.793H320.691C322.176 101.793 323.472 102.342 324.569 103.441C325.669 104.541 326.219 105.86 326.219 107.402C326.219 108.941 325.669 110.246 324.569 111.318C323.468 112.39 322.176 112.925 320.691 112.925H308.063V122.822H326.222V122.825Z" fill="white"/>
<path d="M352.501 119.692H366.119L359.35 102.208L352.501 119.692ZM380.648 126.456C381.198 127.885 381.171 129.3 380.566 130.702C379.96 132.103 378.943 133.106 377.513 133.711C376.082 134.26 374.666 134.219 373.263 133.587C371.861 132.955 370.884 131.897 370.334 130.413L369.592 128.599H349.039L348.379 130.413C347.829 131.897 346.853 132.955 345.45 133.587C344.047 134.219 342.631 134.26 341.201 133.711C339.771 133.106 338.739 132.103 338.107 130.702C337.474 129.3 337.433 127.885 337.983 126.456L354.162 84.9749C354.602 83.9856 355.317 83.1337 356.307 82.4193C357.297 81.7048 358.315 81.3475 359.36 81.3475C360.46 81.3475 361.492 81.6773 362.454 82.3368C363.417 82.9963 364.118 83.8757 364.558 84.9749L380.648 126.456Z" fill="white"/>
<path d="M410.449 81.2616C412.044 81.2616 413.378 81.8112 414.454 82.9104C415.527 84.0096 416.063 85.3286 416.063 86.8675C416.063 88.4613 415.527 89.7804 414.454 90.8246C413.382 91.8689 412.048 92.391 410.449 92.391H401.204V128.348C401.204 129.942 400.682 131.275 399.637 132.347C398.592 133.419 397.271 133.954 395.676 133.954C394.081 133.954 392.761 133.419 391.716 132.347C390.671 131.275 390.148 129.942 390.148 128.348V92.3944H380.821C379.281 92.3944 377.974 91.8723 376.901 90.8281C375.829 89.7838 375.292 88.4648 375.292 86.8709C375.292 85.3321 375.829 84.013 376.901 82.9138C377.974 81.8146 379.281 81.265 380.821 81.265H410.449V81.2616Z" fill="white"/>
<path d="M427.071 81.3441C428.556 81.3441 429.835 81.8937 430.911 82.9929C431.984 84.0921 432.52 85.3837 432.52 86.8676V128.431C432.52 129.97 431.984 131.275 430.911 132.347C429.839 133.419 428.56 133.954 427.071 133.954C425.476 133.954 424.142 133.419 423.069 132.347C421.997 131.275 421.46 129.97 421.46 128.431V86.8676C421.46 85.3837 421.997 84.0921 423.069 82.9929C424.142 81.8937 425.476 81.3441 427.071 81.3441Z" fill="white"/>
<path d="M465.562 130.33C465.122 131.43 464.421 132.309 463.458 132.969C462.496 133.628 461.464 133.958 460.364 133.958C459.319 133.958 458.301 133.601 457.311 132.886C456.321 132.172 455.606 131.32 455.166 130.33L438.987 88.8495C438.437 87.4205 438.478 86.0053 439.111 84.6004C439.743 83.1989 440.775 82.1959 442.205 81.5913C443.635 81.0417 445.051 81.0829 446.457 81.715C447.86 82.347 448.837 83.405 449.387 84.8889L460.364 113.094L471.342 84.8889C471.892 83.405 472.868 82.347 474.271 81.715C475.673 81.0829 477.09 81.0417 478.52 81.5913C479.95 82.1959 480.968 83.1989 481.573 84.6004C482.178 86.0019 482.206 87.4171 481.655 88.8495L465.562 130.33Z" fill="white"/>
<path d="M483.419 107.567C483.419 103.939 484.107 100.528 485.482 97.3408C486.857 94.1531 488.727 91.3605 491.096 88.9697C493.461 86.579 496.257 84.6966 499.474 83.3192C502.692 81.9452 506.12 81.2582 509.751 81.2582C513.381 81.2582 516.795 81.9452 519.985 83.3192C523.176 84.6932 525.957 86.5755 528.323 88.9697C530.688 91.3605 532.558 94.1531 533.933 97.3408C535.308 100.528 535.996 103.936 535.996 107.567C535.996 111.198 535.308 114.605 533.933 117.793C532.558 120.98 530.688 123.773 528.323 126.164C525.957 128.555 523.176 130.437 519.985 131.814C516.795 133.188 513.381 133.875 509.751 133.875C506.117 133.875 502.692 133.188 499.474 131.814C496.257 130.44 493.461 128.555 491.096 126.164C488.731 123.773 486.861 120.98 485.482 117.793C484.107 114.605 483.419 111.198 483.419 107.567ZM494.314 107.567C494.314 109.71 494.713 111.716 495.511 113.588C496.308 115.457 497.408 117.092 498.811 118.494C500.214 119.895 501.85 120.994 503.724 121.791C505.594 122.588 507.602 122.986 509.751 122.986C511.896 122.986 513.89 122.588 515.733 121.791C517.575 120.994 519.198 119.895 520.601 118.494C522.004 117.092 523.107 115.457 523.901 113.588C524.699 111.72 525.098 109.71 525.098 107.567C525.098 105.423 524.699 103.431 523.901 101.586C523.104 99.7453 522.004 98.124 520.601 96.7225C519.198 95.321 517.575 94.2218 515.733 93.4249C513.89 92.628 511.896 92.2295 509.751 92.2295C507.605 92.2295 505.598 92.628 503.724 93.4249C501.854 94.2218 500.217 95.321 498.811 96.7225C497.408 98.124 496.308 99.7453 495.511 101.586C494.713 103.431 494.314 105.423 494.314 107.567Z" fill="white"/>
<path d="M528.653 158.717C528.502 154.509 525.418 152.479 521.543 152.479C518.119 152.479 514.244 153.984 514.244 157.927C514.244 161.235 516.575 162.286 519.663 163.114L522.709 163.791C524.854 164.316 526.958 165.068 526.958 167.322C526.958 170.029 523.874 171.004 521.653 171.004C518.494 171.004 516.125 169.352 515.936 166.157H513.567C513.942 170.891 517.029 172.996 521.543 172.996C525.153 172.996 529.33 171.378 529.33 167.171C529.33 163.787 526.508 162.21 523.802 161.798L520.642 161.084C519.027 160.672 516.62 159.919 516.62 157.814C516.62 155.296 519.102 154.468 521.21 154.468C523.919 154.468 526.174 155.784 526.288 158.714H528.653V158.717ZM497.388 158.982C497.464 155.825 499.643 154.471 502.579 154.471C505.364 154.471 507.657 155.262 507.657 158.456C507.657 160.599 506.567 160.861 504.611 161.087C499.495 161.688 494.191 161.877 494.191 167.325C494.191 171.234 497.123 173 500.699 173C504.422 173 506.117 171.571 507.771 169.053H507.846C507.846 171.083 508.221 172.436 510.631 172.436C511.27 172.436 511.645 172.399 512.171 172.285V170.293C511.982 170.369 511.683 170.444 511.422 170.444C510.48 170.444 510.029 169.919 510.029 169.015V158.717C510.029 153.53 506.306 152.479 502.882 152.479C498.443 152.479 495.246 154.434 495.023 158.982H497.388ZM507.657 164.921C507.695 168.716 504.498 171.008 500.888 171.008C498.667 171.008 496.563 169.541 496.563 167.174C496.563 163.378 501.565 163.416 505.588 162.702C506.227 162.588 507.279 162.399 507.582 161.836H507.657V164.921ZM490.835 145.602H488.466V156.725H488.391C487.377 153.942 484.554 152.479 481.659 152.479C475.753 152.479 472.934 157.254 472.934 162.739C472.934 168.225 475.753 173 481.659 173C484.478 173 487.562 171.272 488.58 168.754H488.655V172.436H490.839V145.602H490.835ZM475.299 162.739C475.299 158.721 477.142 154.471 481.656 154.471C486.696 154.471 488.463 158.717 488.463 162.739C488.463 166.762 486.696 171.008 481.656 171.008C477.142 171.008 475.299 166.762 475.299 162.739ZM466.941 149.398H469.31V145.602H466.941V149.398ZM466.941 172.436H469.31V153.046H466.941V172.436ZM463.545 159.133C463.019 154.698 459.821 152.483 455.682 152.483C449.738 152.483 446.506 157.178 446.506 162.743C446.506 168.304 449.741 173.003 455.682 173.003C460.007 173.003 463.053 170.149 463.692 165.487H461.324C461.021 168.72 458.615 171.011 455.682 171.011C451.13 171.011 448.875 166.879 448.875 162.743C448.875 158.611 451.13 154.475 455.682 154.475C458.766 154.475 460.533 156.24 461.172 159.133H463.545V159.133ZM443.113 153.042H440.744V163.227C440.744 167.174 438.977 171.008 434.913 171.008C431.152 171.008 429.835 169.166 429.722 165.673V153.046H427.353V165.635C427.353 170.145 429.271 173 434.16 173C437.055 173 439.613 171.533 440.854 168.943H440.93V172.436H443.109V153.042H443.113ZM422.98 145.602H420.611V156.725H420.536C419.521 153.942 416.699 152.479 413.804 152.479C407.898 152.479 405.078 157.254 405.078 162.739C405.078 168.225 407.898 173 413.804 173C416.623 173 419.707 171.272 420.725 168.754H420.8V172.436H422.983V145.602H422.98ZM407.444 162.739C407.444 158.721 409.287 154.471 413.801 154.471C418.841 154.471 420.608 158.717 420.608 162.739C420.608 166.762 418.841 171.008 413.801 171.008C409.287 171.008 407.444 166.762 407.444 162.739ZM393.293 154.471C397.845 154.471 400.1 158.604 400.1 162.739C400.1 166.875 397.845 171.008 393.293 171.008C388.741 171.008 386.486 166.875 386.486 162.739C386.486 158.607 388.741 154.471 393.293 154.471ZM393.293 152.479C387.349 152.479 384.117 157.175 384.117 162.739C384.117 168.301 387.352 173 393.293 173C399.237 173 402.473 168.301 402.473 162.739C402.473 157.178 399.237 152.479 393.293 152.479ZM374.027 172.436H376.396V162.101C376.396 158.082 379.332 154.925 383.615 155.148V152.781C380.119 152.63 377.485 154.471 376.282 157.59H376.206V153.042H374.027V172.436V172.436ZM353.444 147.784H362.245C365.779 147.784 368.223 149.587 368.223 153.269C368.223 156.952 365.779 158.755 362.245 158.755H353.444V147.784ZM350.886 172.436H353.444V160.936H362.809C367.625 160.936 370.785 158.116 370.785 153.269C370.785 148.422 367.625 145.602 362.809 145.602H350.886V172.436ZM335.982 158.717C335.831 154.509 332.747 152.479 328.872 152.479C325.448 152.479 321.574 153.984 321.574 157.927C321.574 161.235 323.905 162.286 326.992 163.114L330.038 163.791C332.183 164.316 334.287 165.068 334.287 167.322C334.287 170.029 331.203 171.004 328.982 171.004C325.823 171.004 323.454 169.352 323.265 166.157H320.9C321.275 170.891 324.362 172.996 328.876 172.996C332.486 172.996 336.663 171.378 336.663 167.171C336.663 163.787 333.84 162.21 331.135 161.798L327.975 161.084C326.359 160.672 323.953 159.919 323.953 157.814C323.953 155.296 326.435 154.468 328.542 154.468C331.252 154.468 333.507 155.784 333.62 158.714H335.982V158.717ZM304.717 158.982C304.793 155.825 306.973 154.471 309.909 154.471C312.693 154.471 314.987 155.262 314.987 158.456C314.987 160.599 313.897 160.861 311.94 161.087C306.825 161.688 301.52 161.877 301.52 167.325C301.52 171.234 304.453 173 308.028 173C311.751 173 313.446 171.571 315.1 169.053H315.176C315.176 171.083 315.55 172.436 317.96 172.436C318.6 172.436 318.975 172.399 319.501 172.285V170.293C319.311 170.369 319.012 170.444 318.751 170.444C317.809 170.444 317.359 169.919 317.359 169.015V158.717C317.359 153.53 313.635 152.479 310.211 152.479C305.773 152.479 302.575 154.434 302.352 158.982H304.717ZM314.983 164.921C315.021 168.716 311.824 171.008 308.214 171.008C305.996 171.008 303.889 169.541 303.889 167.174C303.889 163.378 308.891 163.416 312.917 162.702C313.556 162.588 314.608 162.399 314.911 161.836H314.987V164.921H314.983ZM284.547 161.386C284.921 157.855 287.067 154.471 290.941 154.471C294.778 154.471 296.999 157.817 297.109 161.386H284.547ZM299.478 163.378C299.667 157.927 297.185 152.479 290.938 152.479C284.77 152.479 282.175 157.628 282.175 162.739C282.175 168.263 284.77 173 290.938 173C295.827 173 298.385 170.444 299.402 166.047H297.033C296.281 168.977 294.4 171.008 290.941 171.008C286.389 171.008 284.585 166.837 284.547 163.378H299.478ZM278.743 145.602H276.375V156.725H276.299C275.285 153.942 272.462 152.479 269.567 152.479C263.661 152.479 260.842 157.254 260.842 162.739C260.842 168.225 263.661 173 269.567 173C272.387 173 275.47 171.272 276.488 168.754H276.564V172.436H278.747V145.602H278.743ZM263.211 162.739C263.211 158.721 265.053 154.471 269.567 154.471C274.608 154.471 276.375 158.717 276.375 162.739C276.375 166.762 274.608 171.008 269.567 171.008C265.053 171.008 263.211 166.762 263.211 162.739ZM254.059 172.436H256.617V145.606H254.059V172.436Z" fill="white"/>
</g>
<defs>
<clipPath id="clip0">
<rect width="536" height="173" fill="white"/>
</clipPath>
</defs>
</svg>
